<svg width="70" height="70" viewBox="0 0 70 70" fill="none" xmlns="http://www.w3.org/2000/svg">
<path d="M2.25801 9.03204H38.3862V11.2901H40.6442V5.64503C40.6442 2.53236 38.1118 0 34.9992 0H5.64503C2.53236 0 0 2.53236 0 5.64503V56.4503H2.25801V9.03204ZM2.25801 5.64503C2.25801 3.77765 3.77765 2.25801 5.64503 2.25801H34.9992C36.8665 2.25801 38.3862 3.77765 38.3862 5.64503V6.77403H2.25801V5.64503Z" fill="#381DDB"/>
<path d="M0 64.355C0 67.4677 2.53236 70 5.64503 70H34.9992C38.1118 70 40.6442 67.4677 40.6442 64.355V58.71H0V64.355ZM2.25801 60.968H38.3862V64.355C38.3862 66.2224 36.8665 67.742 34.9992 67.742H5.64503C3.77765 67.742 2.25801 66.2224 2.25801 64.355V60.968Z" fill="#381DDB"/>
<path d="M25.9691 63.2236H14.6791V65.4817H25.9691V63.2236Z" fill="#381DDB"/>
<path d="M50.8042 34.9991C47.0683 34.9991 44.0302 38.0373 44.0302 41.7732C44.0302 45.5091 47.0683 48.5472 50.8042 48.5472C54.5401 48.5472 57.5782 45.5091 57.5782 41.7732C57.5782 38.0373 54.5401 34.9991 50.8042 34.9991ZM50.8042 46.2892C48.3136 46.2892 46.2882 44.2638 46.2882 41.7732C46.2882 39.2826 48.3136 37.2572 50.8042 37.2572C53.2948 37.2572 55.3202 39.2826 55.3202 41.7732C55.3202 44.2638 53.2948 46.2892 50.8042 46.2892Z" fill="#381DDB"/>
<path d="M19.1965 20.3201C16.0839 20.3201 13.5515 22.8524 13.5515 25.9651C13.5515 29.0778 16.0839 31.6101 19.1965 31.6101C22.3092 31.6101 24.8416 29.0778 24.8416 25.9651C24.8416 22.8524 22.3092 20.3201 19.1965 20.3201ZM19.1965 29.3521C17.3292 29.3521 15.8095 27.8325 15.8095 25.9651C15.8095 24.0977 17.3292 22.5781 19.1965 22.5781C21.0639 22.5781 22.5836 24.0977 22.5836 25.9651C22.5836 27.8325 21.0639 29.3521 19.1965 29.3521Z" fill="#381DDB"/>
<path d="M23.2007 36.5259C23.4084 36.4469 23.615 36.36 23.8205 36.2663L27.3204 38.5999L31.8229 34.0974L29.4892 30.5975C29.5829 30.3909 29.6699 30.1843 29.7489 29.9777L33.8698 29.1535V22.7859L29.7489 21.9617C29.5897 21.5496 29.4023 21.1376 29.1889 20.73L27.1906 21.7811C27.4514 22.279 27.6636 22.7836 27.8172 23.2782L28.017 23.9183L31.6118 24.6375V27.3019L28.0159 28.0211L27.816 28.6613C27.6625 29.1558 27.4514 29.6593 27.1894 30.1583L26.8778 30.7522L28.9157 33.8095L27.0325 35.6939L23.9752 33.6549L23.3824 33.9665C22.8868 34.2273 22.3821 34.4384 21.8843 34.5942L21.2452 34.794L20.5261 38.3888H17.8605L17.1413 34.794L16.5023 34.5942C16.0044 34.4384 15.4997 34.2273 15.0041 33.9665L14.4114 33.6549L11.354 35.6939L8.81602 33.1547L7.2196 34.7511L11.0673 38.5988L14.5672 36.2651C14.7726 36.3589 14.9793 36.4458 15.187 36.5248L16.0112 40.6457H22.3776L23.2007 36.5259Z" fill="#381DDB"/>
<path d="M4.51855 22.7816V29.1492L8.63942 29.9734C8.79861 30.3855 8.98603 30.7975 9.19941 31.2051L11.1978 30.154C10.937 29.6561 10.7247 29.1515 10.5712 28.657L10.3713 28.0168L6.77657 27.2976V24.6332L10.3724 23.914L10.5723 23.2739C10.7258 22.7793 10.9369 22.2758 11.1989 21.7768L11.5105 21.1829L9.47263 18.1256L11.3569 16.2413L14.4154 18.2803L15.0081 17.9675C15.5026 17.7079 16.0062 17.4967 16.5041 17.3409L17.1431 17.1411L17.8623 13.5463H20.5279L21.247 17.1411L21.886 17.3409C22.3839 17.4967 22.8886 17.7079 23.382 17.9675L23.9747 18.2803L27.0332 16.2413L29.5723 18.7804L31.1687 17.184L27.3222 13.3363L23.8212 15.6689C23.6146 15.5752 23.4091 15.4894 23.2013 15.4092L22.3783 11.2883H16.0118L15.1877 15.4092C14.9799 15.4894 14.7744 15.5752 14.5678 15.6689L11.0668 13.3363L6.56544 17.8377L8.8991 21.3376C8.80539 21.5442 8.71845 21.7508 8.63942 21.9574L4.51855 22.7816Z" fill="#381DDB"/>
<path d="M20.3203 42.9021H18.0623V45.1601H20.3203V42.9021Z" fill="#381DDB"/>
<path d="M20.3203 47.4156H18.0623V49.6737H20.3203V47.4156Z" fill="#381DDB"/>
<path d="M20.3203 51.9353H18.0623V54.1933H20.3203V51.9353Z" fill="#381DDB"/>
<path d="M51.9365 18.063H49.6785V20.321H51.9365V18.063Z" fill="#381DDB"/>
<path d="M51.9365 13.5509H49.6785V15.8089H51.9365V13.5509Z" fill="#381DDB"/>
<path d="M51.9365 9.03101H49.6785V11.289H51.9365V9.03101Z" fill="#381DDB"/>
<path d="M69.9997 46.0896V37.464L64.4314 36.352C64.3016 36.0257 64.1582 35.7028 64.0035 35.3844L61.9724 36.3723C62.1847 36.8103 62.3721 37.2574 62.5257 37.7045L62.7379 38.3153L67.7417 39.3156V44.2369L62.7379 45.2383L62.5257 45.8491C62.371 46.2962 62.1847 46.7444 61.9724 47.1813L61.6891 47.7628L64.5217 52.0112L61.041 55.4919L56.7914 52.6604L56.21 52.9437C55.7731 53.156 55.3249 53.3434 54.8778 53.4969L54.267 53.7092L53.2678 58.7118H48.3453L47.3439 53.7081L46.7331 53.4958C46.286 53.3411 45.8378 53.1549 45.4009 52.9426L44.8194 52.6592L40.5699 55.4908L36.4343 51.3564L34.8379 52.9528L40.2831 58.3968L45.008 55.2469C45.131 55.3 45.2552 55.3519 45.3794 55.4016L46.4938 60.9698H55.1205L56.2326 55.4016C56.3568 55.3519 56.481 55.3 56.604 55.2469L61.3289 58.3968L67.4289 52.2991L64.2779 47.5731C64.3309 47.45 64.3829 47.3258 64.4326 47.2016L69.9997 46.0896Z" fill="#381DDB"/>
<path d="M34.1856 31.2535L37.3367 35.9784C37.2836 36.1015 37.2317 36.2257 37.182 36.3499L31.6149 37.4631V46.0898L37.1831 47.2019C37.313 47.5281 37.4563 47.851 37.611 48.1683L39.6421 47.1804C39.4298 46.7435 39.2424 46.2953 39.0889 45.8482L38.8766 45.2374L33.8729 44.2371V39.3146L38.8766 38.3132L39.0889 37.7024C39.2436 37.2553 39.4298 36.8082 39.6421 36.3702L39.9255 35.7876L37.0928 31.5403L40.5735 28.0596L44.822 30.8911L45.4045 30.6089C45.8403 30.3966 46.2897 30.2092 46.739 30.0534L47.3476 29.8411L48.3456 24.8408H53.2692L54.2695 29.8423L54.878 30.0545C55.3262 30.2103 55.7767 30.3977 56.2125 30.61L56.7951 30.8922L61.0435 28.0607L65.1791 32.1962L66.7755 30.5998L61.3303 25.1558L56.6043 28.3057C56.4823 28.2526 56.3582 28.2018 56.234 28.1521L55.1196 22.5828H46.4952L45.382 28.151C45.2578 28.2007 45.1336 28.2515 45.0116 28.3046L40.2856 25.1546L34.1856 31.2535Z" fill="#381DDB"/>
<rect x="0.5" y="0.5" width="68.9994" height="69" stroke="white"/>
</svg>
